<?xml version="1.0" standalone="no"?>
<!DOCTYPE svg PUBLIC "-//W3C//DTD SVG 20010904//EN"
 "http://www.w3.org/TR/2001/REC-SVG-20010904/DTD/svg10.dtd">
<svg version="1.0" xmlns="http://www.w3.org/2000/svg"
 width="347.000000pt" height="343.000000pt" viewBox="0 0 347.000000 343.000000"
 preserveAspectRatio="xMidYMid meet">

<g transform="translate(0.000000,343.000000) scale(0.100000,-0.100000)"
fill="#000000" stroke="none">
<path d="M3157 3265 c-4 -11 -23 -31 -44 -45 -47 -32 -136 -37 -328 -20 -134
12 -143 12 -185 -7 -64 -28 -105 -66 -173 -158 -68 -92 -120 -141 -194 -179
-86 -46 -136 -36 -149 30 -5 26 -1 35 26 57 17 15 49 30 71 33 59 10 56 22 -7
30 -205 25 -342 -94 -399 -349 -20 -89 -35 -109 -79 -105 -48 5 -68 52 -64
155 2 44 0 79 -3 77 -4 -2 -23 -43 -44 -91 -73 -170 -99 -193 -273 -234 -125
-30 -154 -45 -192 -104 l-25 -38 -3 31 c-8 80 58 135 192 162 53 11 109 26
124 34 42 22 78 65 107 127 23 51 25 67 23 170 -1 98 2 121 20 163 12 27 21
51 19 52 -8 9 -79 -50 -93 -77 -8 -17 -19 -65 -23 -108 -13 -120 -55 -181
-126 -181 -55 0 -86 45 -53 78 19 19 -7 15 -51 -7 -48 -25 -59 -38 -101 -124
-35 -72 -35 -72 -128 -122 -110 -59 -164 -102 -195 -156 -12 -21 -25 -39 -28
-39 -9 0 -20 60 -13 74 3 6 -2 2 -11 -9 -26 -33 -47 -115 -52 -210 -5 -84 -7
-92 -37 -125 -182 -198 -240 -480 -152 -737 44 -128 110 -223 236 -337 36 -33
88 -80 115 -105 167 -155 270 -201 447 -201 84 0 113 5 191 31 64 22 112 31
157 31 74 1 164 -24 182 -51 11 -16 149 -163 377 -403 44 -47 72 -68 88 -68
84 0 243 160 243 244 0 19 -54 75 -240 251 -132 125 -248 241 -257 259 -21 39
-30 181 -14 227 9 29 20 38 68 57 75 29 150 86 189 143 33 49 48 94 87 263 16
64 36 124 52 147 27 42 21 48 -24 24 -27 -14 -29 -13 -34 8 -7 29 5 94 25 132
18 33 58 77 161 173 37 35 71 72 77 82 9 16 4 16 -53 -5 -34 -13 -95 -33 -134
-45 -78 -22 -133 -61 -159 -112 -18 -35 -14 -44 15 -28 24 12 27 4 7 -19 -32
-36 -58 -126 -62 -221 -7 -130 -12 -158 -35 -181 -55 -55 -141 14 -94 77 20
26 19 34 -4 34 -11 0 -23 5 -26 10 -3 6 -2 10 4 10 35 0 91 112 91 181 0 26
-2 27 -35 22 -48 -8 -80 23 -94 88 -22 102 29 207 110 229 29 8 56 8 99 -1 81
-16 173 -8 208 18 30 22 72 79 72 98 0 8 -16 4 -47 -11 -50 -26 -107 -31 -147
-13 -24 11 -45 45 -60 96 -9 29 -53 63 -82 63 -20 0 -23 -5 -22 -38 0 -51 -18
-78 -70 -103 -51 -25 -99 -20 -129 14 -64 70 -57 150 18 203 87 60 168 68 304
28 71 -21 105 -25 161 -22 132 9 194 62 194 169 0 33 -2 59 -4 59 -3 0 -18
-13 -34 -30 -32 -32 -51 -36 -83 -19 -56 30 -41 111 35 185 67 66 119 84 271
94 151 11 220 34 270 92 34 41 51 88 43 125 -4 17 -5 17 -11 -2z m-477 -113
c0 -7 -122 -72 -136 -72 -2 0 0 9 6 21 18 33 130 77 130 51z m-283 -377 c-3
-73 15 -91 88 -88 30 1 55 0 55 -2 0 -13 -65 -35 -100 -35 -39 0 -198 65 -199
81 -1 4 18 9 41 12 34 4 51 14 78 45 19 22 36 40 37 41 1 1 1 -24 0 -54z
m-415 -52 c6 -7 21 -13 34 -13 36 0 29 -11 -32 -50 -31 -19 -62 -46 -69 -60
-12 -23 -14 -23 -21 -6 -11 28 14 116 44 155 27 36 27 36 30 11 2 -14 9 -31
14 -37z m-722 -133 l35 -5 -52 -23 c-56 -24 -83 -28 -83 -11 0 14 19 50 39 72
15 18 16 18 21 -5 4 -17 14 -24 40 -28z m302 -128 l-10 -41 29 15 c33 17 38 6
10 -20 -10 -9 -24 -37 -31 -62 -15 -53 -50 -84 -94 -84 -34 0 -51 8 -57 28 -4
11 -10 9 -28 -5 -28 -23 -77 -19 -84 6 -11 44 42 113 107 137 16 6 17 5 7 -14
-31 -58 80 8 125 73 33 49 41 38 26 -33z m213 -30 c-3 -14 -28 -46 -53 -69
-46 -43 -47 -44 -32 -71 22 -38 71 -42 105 -8 14 14 25 35 25 47 0 20 2 19 36
-11 28 -24 43 -30 63 -26 14 3 49 9 76 12 l50 6 -31 -21 c-18 -12 -37 -35 -44
-51 -6 -16 -20 -36 -31 -46 -18 -16 -19 -16 -19 1 0 26 -29 55 -56 55 -40 0
-54 -35 -54 -133 l0 -89 -105 108 c-100 102 -105 110 -105 149 0 53 26 88 91
120 27 14 56 37 66 51 19 30 29 17 18 -24z m-820 -57 c-14 -21 -25 -47 -25
-59 0 -19 2 -18 26 9 16 19 23 23 20 12 -3 -10 -6 -34 -6 -52 0 -31 -4 -35
-67 -64 -36 -18 -70 -28 -74 -24 -4 4 -11 20 -14 36 -8 28 3 35 23 15 9 -9 12
-5 12 18 0 40 31 87 81 124 23 16 44 28 46 26 2 -2 -7 -21 -22 -41z m331 -9
c-26 -53 -40 -66 -73 -66 -31 0 -29 21 4 61 22 26 82 63 90 55 1 -1 -8 -24
-21 -50z m90 -126 c172 -44 263 -107 440 -302 152 -168 190 -221 222 -311 21
-60 26 -90 26 -177 0 -58 -5 -116 -11 -130 -9 -20 -10 -8 -6 55 6 98 -14 193
-60 279 -39 74 -281 345 -366 411 -200 153 -469 182 -698 75 -171 -79 -299
-217 -366 -394 -30 -77 -31 -88 -32 -228 0 -165 -14 -167 -22 -3 -7 133 13
231 73 355 39 79 60 108 133 180 113 112 220 169 386 204 59 12 207 5 281 -14z
m-602 -49 c14 -26 14 -30 -3 -46 -18 -16 -20 -15 -26 5 -7 21 0 70 10 70 2 0
11 -13 19 -29z m1222 -53 c-4 -13 -10 -50 -13 -84 -7 -79 21 -150 67 -167 39
-15 35 -36 -11 -61 -44 -24 -75 -16 -108 25 -33 42 -42 159 -16 210 39 77 97
132 81 77z m-1405 -477 c-6 -38 -10 -96 -10 -128 2 -53 2 -51 10 27 4 47 15
105 23 130 l15 45 -7 -65 c-18 -171 3 -307 65 -420 27 -50 30 -61 14 -45 -12
10 -38 51 -56 90 -19 38 -35 63 -35 55 0 -9 18 -51 39 -94 46 -90 21 -79 -28
13 -59 112 -77 264 -45 402 20 89 29 83 15 -10z m1376 -61 c24 -64 28 -89 27
-175 -1 -175 -5 -181 -271 -446 -214 -211 -232 -226 -285 -242 -74 -23 -194
-35 -184 -19 4 7 19 12 34 13 15 0 45 7 67 14 l40 14 -47 -2 c-69 -2 -67 8 5
22 87 17 108 33 33 25 -69 -8 -72 10 -4 20 78 12 116 40 281 202 203 199 223
232 221 369 -1 64 -7 108 -22 150 -11 33 -19 61 -17 63 7 7 39 -50 57 -102
l19 -51 -7 45 c-3 25 -15 70 -25 100 -10 30 -19 59 -19 65 1 15 30 -25 51 -70
26 -55 24 -30 -5 62 l-25 78 24 -30 c14 -16 37 -64 52 -105z m319 -65 c-9 -37
-74 -105 -121 -127 -33 -16 -35 -19 -12 -15 15 2 27 1 27 -3 0 -6 -72 -50 -84
-50 -8 0 -8 74 0 94 4 11 19 16 43 16 46 0 100 36 126 83 21 40 31 41 21 2z
m-282 -470 l6 -79 -45 44 -45 44 37 38 c20 21 37 37 38 35 1 -1 5 -38 9 -82z
m-87 -113 c-9 -85 -91 -133 -165 -98 l-35 17 84 85 84 85 19 -23 c13 -17 17
-34 13 -66z m154 -59 c428 -400 449 -421 449 -451 0 -59 -146 -202 -206 -202
-21 0 -62 41 -395 395 -107 114 -159 172 -159 177 0 3 20 5 45 6 33 0 55 7 79
26 37 28 72 103 63 136 -3 11 -2 20 2 20 4 0 59 -48 122 -107z m-336 -101 l40
-45 -34 6 c-18 4 -56 7 -84 7 l-51 0 39 40 c21 22 42 40 45 39 3 0 23 -21 45
-47z"/>
<path d="M592 1435 c0 -16 2 -22 5 -12 2 9 2 23 0 30 -3 6 -5 -1 -5 -18z"/>
<path d="M601 1384 c0 -11 3 -14 6 -6 3 7 2 16 -1 19 -3 4 -6 -2 -5 -13z"/>
<path d="M1955 1081 c-3 -5 -1 -12 5 -16 5 -3 10 1 10 9 0 18 -6 21 -15 7z"/>
<path d="M1866 925 c-10 -15 -32 -33 -49 -40 -26 -12 -28 -14 -10 -15 35 0 53
11 69 42 20 38 12 47 -10 13z"/>
<path d="M1879 797 l-36 -22 71 -77 c312 -336 382 -408 398 -414 18 -5 35 3
83 41 19 15 9 25 -220 255 -132 132 -244 240 -250 239 -5 0 -26 -11 -46 -22z"/>
<path d="M2338 3240 c-24 -42 -70 -66 -139 -74 -69 -7 -91 -17 -136 -59 -36
-34 -42 -51 -15 -43 9 3 61 8 116 10 108 6 134 16 166 69 18 29 37 113 29 122
-3 2 -12 -9 -21 -25z"/>
<path d="M1775 3074 c-44 -23 -66 -45 -81 -81 -20 -46 -17 -83 8 -123 l22 -35
8 40 c17 88 31 120 75 166 42 46 44 49 22 49 -13 0 -37 -7 -54 -16z"/>
<path d="M2776 2593 c-37 -9 -95 -53 -109 -80 -8 -16 -20 -52 -26 -81 -6 -29
-20 -71 -31 -92 -19 -37 -19 -40 -3 -40 10 0 42 11 70 25 63 29 87 64 102 147
6 33 20 75 31 94 20 32 20 34 3 33 -10 -1 -27 -4 -37 -6z"/>
<path d="M2059 2547 c-42 -28 -57 -66 -41 -102 8 -18 19 -25 39 -25 34 0 46 8
61 37 11 20 9 22 -15 25 -36 4 -41 33 -12 64 28 30 12 31 -32 1z"/>
<path d="M2475 2504 c-27 -7 -72 -14 -100 -14 l-50 0 37 -36 c29 -30 44 -37
75 -37 50 0 74 13 113 63 l32 40 -29 -1 c-15 0 -50 -7 -78 -15z"/>
<path d="M2188 2173 c-50 -31 -66 -119 -29 -156 11 -11 11 -11 30 67 6 27 21
62 32 77 24 34 10 38 -33 12z"/>
<path d="M2601 2070 l-65 -58 -4 -66 c-5 -72 7 -86 27 -31 7 19 28 58 48 87
35 51 67 117 61 123 -2 2 -32 -23 -67 -55z"/>
<path d="M699 726 c-83 -29 -153 -118 -165 -208 -21 -155 129 -305 283 -284
80 11 163 69 200 139 25 49 29 148 8 203 -49 129 -196 197 -326 150z m210 -49
c64 -43 95 -97 99 -177 5 -77 -9 -113 -66 -172 -102 -107 -285 -78 -353 54
-59 115 -18 245 96 303 69 36 163 33 224 -8z"/>
<path d="M964 523 c-18 -81 -26 -101 -53 -134 -38 -45 -86 -69 -143 -70 -32 0
-38 -2 -23 -8 l20 -8 -20 -5 c-11 -3 6 -6 38 -7 81 -1 149 36 182 100 19 36
31 129 17 129 -6 0 -9 7 -6 15 4 8 3 15 0 15 -3 0 -8 -12 -12 -27z"/>
</g>
</svg>
