<?xml version="1.0" standalone="no"?>
<!DOCTYPE svg PUBLIC "-//W3C//DTD SVG 20010904//EN"
 "http://www.w3.org/TR/2001/REC-SVG-20010904/DTD/svg10.dtd">
<svg version="1.0" xmlns="http://www.w3.org/2000/svg"
 width="500.000000pt" height="500.000000pt" viewBox="0 0 500.000000 500.000000"
 preserveAspectRatio="xMidYMid meet">

<g transform="translate(0.000000,500.000000) scale(0.100000,-0.100000)"
fill="#000000" stroke="none">
<path d="M2710 4615 c16 -43 12 -45 -32 -20 -44 26 -148 36 -148 15 0 -5 -14
-10 -30 -10 -47 0 -186 -58 -217 -90 -15 -16 -37 -31 -50 -35 -13 -3 -23 -12
-23 -19 0 -16 -62 -48 -96 -50 -28 -1 -29 -5 -9 -32 21 -28 19 -47 -5 -41 -13
3 -20 0 -20 -8 0 -26 45 -66 95 -83 l50 -18 5 -56 c3 -34 12 -64 23 -76 22
-24 24 -44 8 -98 -14 -52 -7 -72 26 -76 14 -2 29 -10 33 -18 22 -46 45 -86 52
-91 5 -3 17 -21 26 -40 25 -50 59 -58 127 -30 31 13 59 20 63 17 3 -4 -22 -34
-56 -67 -128 -124 -151 -175 -163 -364 -5 -71 -9 -141 -9 -155 -1 -14 -9 -45
-19 -70 -10 -25 -24 -79 -31 -120 -21 -134 -20 -133 -147 -99 -194 51 -293
110 -360 211 -26 40 -61 81 -78 91 -160 99 -164 106 -85 188 71 74 92 120 98
204 8 132 -40 267 -121 342 -91 84 -240 90 -344 14 -112 -81 -136 -294 -53
-469 31 -66 92 -119 162 -143 41 -13 72 -42 82 -75 5 -15 0 -26 -19 -40 -29
-22 -31 -40 -9 -72 8 -12 14 -28 11 -35 -2 -6 2 -25 10 -40 8 -16 12 -35 9
-42 -3 -8 -1 -26 4 -42 5 -15 12 -41 15 -56 3 -17 16 -32 31 -39 14 -7 32 -25
40 -40 13 -24 20 -28 58 -28 24 0 57 5 75 11 26 9 36 8 59 -7 25 -16 181 -142
192 -155 15 -17 140 -95 207 -128 89 -44 230 -83 265 -73 52 16 75 45 176 227
79 142 122 252 135 342 16 107 24 106 160 -19 176 -162 237 -234 237 -279 0
-17 9 -47 20 -69 11 -22 20 -44 20 -50 0 -6 -23 -34 -51 -61 -51 -50 -52 -51
-46 -98 5 -45 -6 -79 -33 -101 -3 -3 -35 -45 -70 -95 -119 -168 -106 -154
-142 -144 -18 5 -170 41 -338 79 -168 38 -349 81 -404 95 l-99 25 -788 0
c-695 0 -789 -2 -789 -15 0 -13 95 -15 792 -15 486 0 803 -4 822 -10 17 -5 90
-23 161 -40 72 -17 146 -35 165 -40 40 -11 186 -45 375 -89 102 -24 310 -61
340 -61 3 0 5 -4 5 -10 0 -7 -454 -11 -1327 -12 l-1328 -3 0 -65 0 -65 357 -3
c227 -1 358 -6 358 -12 0 -6 -130 -10 -361 -10 l-360 0 3 -23 3 -22 358 -3
c334 -2 358 -3 355 -20 -3 -16 -31 -17 -358 -22 l-355 -5 0 -55 0 -55 355 -5
355 -5 3 -487 c2 -480 3 -488 22 -488 15 0 20 -7 20 -25 0 -25 0 -25 95 -25
l95 0 0 283 c0 155 4 288 8 294 6 10 20 6 57 -13 87 -45 80 -9 80 -437 l0
-382 129 -3 c83 -2 133 1 140 8 8 8 13 210 16 643 l5 632 285 5 285 5 3 53 3
53 37 -7 c71 -13 72 -12 72 61 l0 65 151 0 c140 0 151 -1 146 -17 -7 -24 -89
-218 -116 -273 -11 -25 -34 -61 -51 -80 -64 -75 -110 -223 -110 -358 0 -24 -7
-77 -16 -120 -25 -120 -58 -167 -89 -126 -14 18 -14 17 -15 -8 0 -32 -19 -44
-80 -54 -40 -7 -42 -8 -24 -21 16 -12 17 -15 4 -23 -25 -16 -119 -50 -139 -50
-31 0 -89 -29 -105 -52 -19 -27 -21 -113 -3 -125 11 -7 430 -5 487 2 14 2 60
4 102 4 l77 1 7 36 c6 35 -7 178 -21 237 -11 43 53 165 125 238 72 73 100 130
100 206 0 81 26 129 107 194 37 30 127 114 201 187 75 73 141 131 148 128 35
-13 80 -15 95 -3 9 7 34 39 55 72 48 73 134 195 151 213 18 19 65 24 92 10 15
-8 31 -31 41 -63 10 -27 27 -69 39 -91 12 -23 24 -59 27 -80 11 -77 50 -164
101 -223 48 -56 80 -128 92 -202 16 -98 36 -156 74 -214 52 -77 94 -164 122
-252 14 -43 29 -91 35 -107 5 -16 6 -34 2 -40 -10 -17 -24 -114 -25 -186 -2
-47 -8 -75 -25 -103 -26 -46 -33 -144 -11 -158 56 -36 263 -39 334 -4 37 19
40 23 43 68 2 27 -4 70 -13 97 -11 33 -14 64 -10 93 5 34 2 53 -14 85 -12 23
-21 51 -21 63 0 12 -7 30 -16 40 -24 26 -34 116 -43 384 -11 300 -17 323 -113
473 -76 118 -86 222 -27 290 34 39 34 26 14 317 -8 121 -15 239 -15 262 0 23
-7 48 -15 57 -8 8 -15 30 -15 49 0 20 -7 40 -16 48 -9 7 -30 37 -46 66 -16 29
-38 55 -47 58 -15 4 -111 134 -111 149 0 3 26 19 58 37 76 43 186 134 251 206
50 55 52 60 47 102 -7 55 -37 94 -134 177 -125 107 -312 244 -333 244 -4 0 -9
8 -12 19 -2 10 -31 33 -63 51 -33 19 -86 52 -119 76 -157 109 -299 143 -605
144 -138 0 -158 3 -180 20 -14 11 -33 20 -42 20 -22 0 -22 -2 -22 195 -1 141
-3 165 -22 205 -36 75 -90 118 -133 106 -10 -3 -23 6 -36 26 -26 42 -49 50
-35 13z m-48 -63 c9 -9 0 -12 -40 -12 -62 0 -69 -15 -11 -24 35 -6 39 -9 29
-21 -7 -8 -17 -15 -22 -15 -6 0 -39 -20 -74 -45 -35 -24 -64 -41 -64 -37 0 4
9 25 21 46 l21 39 -51 -36 c-59 -43 -66 -45 -50 -16 12 23 8 22 -41 -11 -75
-52 -114 -66 -172 -62 -65 4 -76 18 -22 28 24 4 38 14 44 29 6 15 40 39 104
71 52 26 93 51 90 55 -16 27 213 36 238 11z m174 -26 c10 -8 16 -18 11 -22 -4
-4 -13 -2 -19 4 -7 7 -20 12 -31 12 -10 0 -15 5 -12 10 9 14 28 12 51 -4z
m-71 -49 c4 -13 0 -39 -9 -58 l-14 -34 -1 30 -1 30 -26 -28 c-32 -35 -41 -29
-19 13 l16 32 -58 -32 c-32 -18 -64 -37 -70 -42 -21 -17 -15 6 9 38 12 16 23
31 25 33 5 7 108 40 125 41 10 0 20 -10 23 -23z m49 8 c3 -8 1 -15 -3 -15 -5
0 -11 7 -15 15 -3 8 -1 15 3 15 5 0 11 -7 15 -15z m-546 -155 c15 -1 14 -3 -2
-15 -11 -8 -40 -15 -65 -15 l-46 1 45 24 c25 13 47 19 48 14 2 -5 11 -9 20 -9z
m152 -53 c0 -27 54 -107 73 -107 11 -1 55 -51 78 -90 8 -13 10 -13 19 0 10 14
13 25 25 84 11 55 59 72 95 34 24 -26 26 -62 5 -112 -12 -27 -21 -36 -39 -36
-24 0 -32 -11 -41 -60 -2 -12 -9 -28 -16 -36 -6 -8 -8 -14 -3 -14 5 0 4 -4 -3
-8 -6 -4 -13 -16 -15 -27 -1 -11 -12 -29 -23 -40 -11 -11 -22 -29 -23 -40 -11
-59 -108 -89 -130 -40 -7 14 -12 32 -12 40 0 8 -7 15 -15 15 -18 0 -20 16 -3
26 9 6 5 10 -12 14 -20 5 -25 12 -25 36 0 29 -2 31 -35 30 -24 -1 -34 3 -32
12 1 7 5 40 9 73 5 48 9 59 24 59 10 0 21 -4 24 -10 10 -16 22 -12 28 10 3 10
0 21 -7 23 -7 3 -3 11 9 21 20 15 20 15 -1 16 -12 0 -39 -7 -59 -16 -46 -19
-57 -9 -53 51 3 38 6 41 73 76 85 45 85 45 85 16z m452 -312 c10 -18 10 -19
-7 -5 -17 14 -17 14 -7 -7 7 -12 17 -25 22 -28 6 -3 10 -11 10 -16 0 -6 -5 -7
-11 -3 -7 4 -6 -3 2 -17 7 -13 12 -28 11 -33 -2 -4 4 -19 13 -32 9 -14 13 -28
11 -33 -3 -5 1 -14 9 -21 13 -11 15 -2 15 69 0 44 4 81 9 81 24 0 18 -294 -6
-334 -4 -6 -8 -18 -8 -26 0 -15 -33 -17 -65 -4 -11 5 -9 9 10 14 l25 8 -27 1
c-17 1 -28 7 -28 15 0 8 -6 17 -12 19 -8 3 -6 6 5 6 15 1 15 3 -3 21 -11 11
-20 25 -20 30 0 6 -6 10 -13 10 -7 0 -19 9 -27 20 -8 11 -20 20 -27 20 -7 0
-21 9 -30 20 -10 11 -24 20 -33 20 -13 0 -13 1 0 10 13 9 13 10 0 10 -11 0
-12 3 -3 8 22 14 33 59 22 94 -5 18 -9 56 -9 84 0 48 2 53 38 77 l37 25 43
-42 c24 -22 48 -50 54 -61z m147 27 c34 -36 68 -102 52 -102 -9 0 -131 125
-131 134 0 3 10 6 22 6 12 0 37 -17 57 -38z m427 -12 c123 -16 213 -53 344
-141 47 -31 97 -63 113 -70 28 -13 33 -25 18 -48 -7 -11 -10 -11 -17 0 -5 8
-23 22 -40 31 l-30 17 3 -32 4 -32 -18 25 c-30 42 -96 111 -116 122 -19 10
-19 9 1 -20 36 -50 25 -54 -30 -12 -51 38 -73 46 -48 15 19 -23 4 -18 -42 15
-47 35 -63 38 -48 11 5 -11 10 -30 10 -43 -1 -19 -9 -13 -56 40 -31 34 -59 62
-64 62 -4 0 -6 -21 -4 -47 l4 -48 -27 55 -27 55 -7 -45 c-4 -25 -8 -63 -8 -85
-2 -53 -20 -27 -22 30 -1 22 -4 54 -8 70 l-6 30 -28 -40 -27 -40 0 33 c0 28
-3 32 -27 32 -16 1 -39 7 -53 15 -32 19 -40 18 -40 -1 0 -8 -5 -12 -11 -8 -8
4 -9 -3 -4 -25 4 -17 4 -31 1 -31 -6 0 -66 114 -66 125 0 8 284 -4 376 -15z
m-1935 -31 c48 -15 103 -60 135 -111 36 -57 24 -56 -20 2 -46 60 -120 100
-185 100 -60 0 -141 -38 -174 -82 -38 -49 -61 -148 -53 -228 4 -43 2 -60 -4
-50 -5 8 -10 54 -10 103 0 115 29 181 105 233 61 43 134 54 206 33z m1118
-286 l-1 -48 -10 34 c-5 18 -7 40 -4 47 10 27 16 14 15 -33z m1500 -68 c136
-104 155 -119 221 -184 57 -56 56 -72 -2 -52 -39 14 -71 14 -63 1 3 -6 -4 -10
-17 -10 -18 0 -20 -2 -8 -10 12 -7 8 -10 -14 -10 -29 0 -29 -1 -10 -15 18 -15
17 -16 -16 -10 -35 6 -35 6 -10 -9 l25 -15 -35 -1 c-34 -1 -34 -2 -10 -12 l25
-11 -23 -4 c-12 -3 -20 -9 -17 -14 4 -5 -9 -9 -27 -10 -30 0 -31 -1 -10 -9 32
-13 27 -20 -10 -14 -32 6 -32 6 -13 -10 20 -17 19 -17 -7 -13 -32 5 -35 0 -10
-20 15 -13 14 -14 -18 -9 -32 6 -33 5 -15 -8 19 -15 19 -15 -9 -16 -27 0 -28
-1 -12 -13 16 -12 13 -13 -20 -10 -33 3 -35 2 -16 -7 33 -14 27 -23 -10 -16
-31 6 -31 6 -13 -10 19 -15 18 -15 -15 -10 -27 4 -31 3 -17 -5 27 -16 21 -30
-9 -19 -35 14 -55 11 -24 -2 l25 -11 -23 -4 c-12 -3 -20 -9 -17 -14 4 -5 -3
-9 -15 -9 -12 0 -18 -4 -15 -10 3 -5 -3 -10 -14 -10 -14 0 -19 -5 -15 -14 4
-11 0 -13 -15 -9 -16 4 -20 2 -15 -10 4 -11 -3 -17 -25 -22 -17 -4 -29 -11
-25 -16 3 -5 -2 -9 -10 -9 -16 0 -19 -9 -16 -47 3 -43 -52 -134 -113 -185 -54
-45 -107 -64 -107 -38 0 6 4 10 9 10 4 0 24 14 42 30 19 17 46 38 61 47 22 14
46 53 32 53 -3 0 -32 -23 -65 -50 -73 -61 -115 -84 -124 -69 -4 6 -5 11 -4 13
38 26 159 131 159 137 0 17 -14 9 -86 -51 -79 -65 -119 -86 -130 -68 -4 6 2
17 12 24 44 30 152 130 153 142 1 20 -37 -3 -79 -47 -52 -55 -99 -86 -112 -73
-7 7 4 27 38 64 85 92 98 108 88 108 -9 0 -88 -63 -111 -90 -8 -8 -24 -28 -37
-45 -34 -42 -43 -25 -16 30 28 59 124 125 230 159 204 67 312 147 423 315 43
65 82 110 107 127 22 15 40 28 40 30 0 8 -75 -27 -103 -47 -22 -16 -37 -19
-63 -15 -18 4 -36 12 -40 18 -5 8 -1 9 12 4 24 -9 13 2 -33 31 -37 24 -38 24
-8 18 l30 -6 -35 31 c-29 25 -31 29 -10 20 l25 -11 -22 20 c-27 23 -29 33 -5
24 15 -6 15 -5 3 10 -12 16 -12 17 5 10 17 -6 18 -5 4 12 -14 17 -13 18 4 12
15 -6 17 -5 8 6 -11 13 -6 33 27 120 l11 28 31 -18 c17 -10 79 -54 138 -98z
m-1539 43 c0 -24 3 -54 6 -68 6 -25 6 -24 -20 5 l-27 30 7 -45 c3 -25 12 -62
19 -82 16 -48 4 -48 -31 -3 -15 20 -29 34 -31 32 -2 -3 5 -26 15 -53 11 -27
23 -58 27 -69 5 -13 -6 -6 -34 20 -49 47 -54 30 -11 -38 36 -57 29 -60 -22
-10 -41 40 -46 35 -23 -20 21 -51 19 -55 -16 -21 l-31 29 8 -30 c4 -16 12 -36
18 -44 8 -11 8 -15 -1 -18 -20 -7 -15 -19 13 -32 34 -15 25 -25 -15 -16 l-31
7 0 107 c0 111 7 145 43 219 21 43 110 142 128 142 5 0 9 -19 9 -42z m340
-118 c0 -12 -8 -12 -35 0 -18 8 -17 9 8 9 15 1 27 -3 27 -9z m850 -176 c20
-38 48 -91 63 -119 31 -57 33 -68 13 -84 -11 -9 -20 2 -49 61 l-35 73 -2 -45
-2 -45 -13 45 c-7 25 -16 62 -20 84 -6 35 -7 37 -20 20 -13 -17 -14 -12 -15
45 l0 63 23 -14 c12 -8 38 -46 57 -84z m-2185 16 c-12 -13 -22 -17 -28 -11
-13 13 1 31 25 31 21 0 21 -1 3 -20z m-69 -5 c-23 -17 -42 -19 -50 -6 -7 11
11 19 44 20 24 0 24 0 6 -14z m2377 -24 c37 -18 67 -37 67 -43 0 -12 -53 -88
-62 -88 -4 0 -25 33 -47 74 -39 69 -50 102 -33 94 4 -2 37 -19 75 -37z m-2445
2 c5 -18 -20 -16 -44 2 -18 15 -18 15 10 13 16 -2 31 -9 34 -15z m82 -29 c6
-14 10 -39 10 -55 0 -26 -3 -30 -22 -27 -40 5 -52 108 -13 108 8 0 20 -12 25
-26z m117 -114 c51 -29 99 -81 143 -154 43 -71 189 -147 389 -200 49 -13 98
-29 109 -35 27 -14 32 -14 26 3 -6 17 21 180 42 254 9 29 24 57 34 62 24 13
110 13 110 0 0 -5 -6 -10 -12 -10 -9 0 -8 -4 2 -10 10 -6 11 -10 3 -10 -19 0
-11 -24 12 -34 18 -9 17 -10 -10 -14 l-30 -4 30 -13 30 -13 -35 -2 -35 -2 30
-11 30 -11 -25 -7 -25 -7 25 -8 25 -8 -25 -7 -25 -7 23 -7 c31 -10 28 -25 -5
-26 -21 -1 -23 -2 -8 -6 35 -9 41 -23 10 -24 l-30 0 25 -11 25 -11 -23 -5
c-22 -3 -23 -4 -5 -17 17 -14 17 -14 -2 -15 -17 0 -17 -2 -5 -10 12 -8 10 -10
-9 -10 -24 0 -24 0 -5 -15 10 -8 14 -15 7 -15 -7 0 -10 -7 -6 -17 5 -13 2 -15
-13 -10 -19 7 -19 7 0 -8 19 -15 19 -15 -4 -15 -23 0 -23 0 -4 -16 18 -15 18
-15 -10 -9 -26 5 -28 4 -17 -9 17 -20 13 -20 -32 -1 -51 21 -59 18 -14 -6 58
-31 38 -33 -34 -5 -68 28 -92 29 -34 1 20 -9 34 -19 32 -22 -6 -5 -120 39
-180 69 -22 11 -41 18 -42 16 -2 -2 17 -14 43 -28 26 -13 56 -30 67 -38 19
-13 19 -14 -5 -7 -83 24 -313 156 -385 221 l-50 46 40 -22 40 -22 -35 31 c-19
17 -44 31 -55 32 -11 0 -14 3 -7 6 6 2 12 9 12 14 0 6 -4 8 -9 5 -5 -4 -17 -3
-27 1 -16 6 -16 7 2 14 17 7 17 8 -3 8 -13 1 -23 7 -23 15 0 8 -7 17 -16 20
-8 3 -13 10 -10 14 3 5 -6 20 -19 32 -14 13 -25 32 -25 43 0 25 -40 58 -62 51
-21 -6 -58 4 -58 16 0 8 44 28 65 29 6 0 33 -12 62 -29z m-135 -20 l22 -20
-47 0 c-33 0 -47 4 -47 13 0 33 41 37 72 7z m51 -61 c21 -5 37 -16 37 -24 0
-12 -15 -15 -64 -15 -67 0 -86 10 -66 35 15 18 41 19 93 4z m52 -84 c0 -11
-122 -31 -131 -22 -4 3 -4 13 0 22 5 13 18 15 68 13 35 -2 63 -7 63 -13z m-45
-50 c0 -8 -11 -22 -25 -31 -20 -13 -28 -14 -40 -4 -17 14 -11 28 19 40 32 13
46 12 46 -5z m2530 -104 c29 -44 62 -82 72 -84 23 -6 23 -26 1 -34 -11 -4 -23
2 -35 18 -10 13 -35 44 -54 68 -44 55 -67 99 -59 111 9 15 16 8 75 -79z m-110
32 c0 -19 13 -39 43 -67 24 -23 56 -61 71 -84 23 -36 31 -43 49 -37 60 18 66
18 78 -9 7 -14 16 -26 21 -26 4 0 8 -18 8 -40 0 -27 7 -47 21 -61 22 -22 21
-57 -2 -49 -8 3 -62 4 -121 4 -69 -1 -106 2 -102 8 13 20 -77 -8 -158 -50 -5
-2 -8 1 -8 7 0 5 30 25 67 43 60 29 75 32 157 32 50 1 103 -3 117 -7 26 -7 26
-6 15 28 -6 19 -17 35 -25 35 -8 0 -11 6 -7 16 4 9 4 26 0 36 -7 24 -25 21
-109 -17 l-60 -27 27 29 c27 28 27 28 8 53 -17 22 -22 23 -39 13 -31 -20 -34
-16 -10 17 l22 29 -51 46 c-68 61 -81 105 -31 105 14 0 19 -7 19 -27z m-2362
-23 c11 -18 9 -21 -13 -30 -34 -13 -32 -13 -38 9 -10 38 30 54 51 21z m287
-76 c30 -20 55 -39 55 -41 0 -6 -70 34 -100 57 -42 33 -13 22 45 -16z m2361
-326 c21 -10 24 -18 24 -70 l0 -59 -27 19 c-16 10 -36 22 -45 25 -31 11 -20
26 12 17 41 -12 38 -4 -10 20 -48 25 -51 35 -8 26 42 -8 26 8 -27 29 l-40 15
49 -6 c27 -3 59 -10 72 -16z m-61 -142 c90 -42 89 -39 69 -227 -34 -336 -35
-330 48 -457 66 -102 89 -169 94 -277 3 -61 1 -84 -5 -70 -5 11 -10 35 -10 53
-1 17 -5 32 -9 32 -4 0 -9 16 -10 36 -2 20 -9 43 -17 51 -8 8 -15 21 -15 29 0
8 -4 12 -10 9 -5 -3 -10 3 -10 14 0 11 -7 26 -15 35 -8 8 -15 22 -15 30 0 9
-4 16 -8 16 -4 0 -16 32 -26 70 -10 39 -22 70 -27 70 -5 0 -9 7 -9 15 0 8 -4
15 -10 15 -5 0 -7 6 -4 13 4 11 -32 37 -50 37 -2 0 -7 -21 -11 -47 -10 -69
-54 -113 -112 -113 -39 0 -45 3 -68 40 -14 22 -25 45 -26 52 0 10 -2 10 -5 1
-12 -27 -44 28 -54 92 -14 90 -20 296 -8 318 6 11 5 17 -2 17 -7 0 -8 6 -2 18
5 9 7 22 5 29 -2 6 0 14 6 17 6 4 8 12 5 19 -13 36 100 86 196 86 48 1 78 -5
115 -23z m-2005 -466 c0 -6 -78 -10 -215 -10 -137 0 -215 4 -215 10 0 6 78 10
215 10 137 0 215 -4 215 -10z m832 -7 c9 -11 6 -12 -17 -3 -34 13 -45 6 -16
-10 36 -19 23 -30 -19 -15 -48 17 -50 14 -7 -15 l32 -22 -35 6 -35 6 30 -25
c32 -28 35 -27 -37 -9 -20 4 -19 3 5 -13 36 -24 34 -34 -5 -22 -43 12 -46 5
-9 -17 44 -26 38 -36 -10 -19 -56 20 -60 19 -21 -6 40 -26 35 -35 -10 -20
l-33 11 30 -26 30 -26 -40 7 -39 7 24 -21 c27 -22 13 -28 -23 -10 -19 9 -18 7
3 -10 l25 -21 -25 0 c-25 -1 -25 -1 -5 -16 19 -15 19 -15 -10 -8 -28 7 -29 6
-16 -10 13 -16 12 -17 -15 -10 -27 7 -28 6 -15 -10 13 -16 12 -17 -14 -10 -20
5 -26 4 -21 -5 10 -15 -16 -14 -34 2 -12 10 -12 9 -1 -6 17 -22 7 -34 -14 -17
-11 9 -15 9 -15 1 0 -7 -4 -9 -10 -6 -5 3 -10 14 -10 24 0 16 61 167 126 309
l24 53 110 -3 c79 -1 114 -6 122 -15z m-1892 -74 c0 -11 -4 -17 -10 -14 -5 3
-10 13 -10 21 0 8 5 14 10 14 6 0 10 -9 10 -21z m244 6 c20 -8 36 -17 36 -20
0 -3 -18 -5 -40 -5 -33 0 -40 3 -40 20 0 24 -1 24 44 5z m819 9 c3 -3 3 -12 0
-20 -4 -11 -45 -14 -218 -14 -206 0 -236 4 -220 30 7 11 427 15 438 4z m-1053
-397 c0 -327 -12 -697 -22 -691 -9 6 -11 917 -2 927 20 19 24 -26 24 -236z
m321 236 c5 -55 3 -286 -2 -295 -10 -16 -127 38 -133 61 -6 20 -6 224 1 234 2
4 33 7 69 7 35 0 64 -3 65 -7z m49 -599 c0 -389 -3 -594 -10 -594 -7 0 -10
207 -10 601 0 397 3 598 10 594 6 -4 10 -215 10 -601z m1101 353 c-6 -6 -11
-17 -11 -25 0 -8 -8 -26 -19 -40 -21 -32 -53 -121 -46 -132 3 -5 1 -10 -4 -12
-8 -2 -16 -32 -20 -73 -1 -5 -6 -3 -11 5 -30 44 38 295 99 364 15 17 16 16 19
-29 2 -26 -2 -53 -7 -58z m1809 -492 c-7 -8 -20 -15 -29 -15 -12 0 -10 5 9 20
l25 20 -28 -10 c-46 -16 -66 -11 -32 8 l30 17 -30 4 -30 3 40 18 40 17 9 -34
c5 -23 4 -38 -4 -48z m-1913 55 c22 -17 23 -20 7 -20 -17 0 -17 -1 2 -16 18
-15 18 -15 -6 -10 -21 4 -23 3 -9 -7 24 -18 21 -49 -5 -42 -21 6 -21 6 -1 -11
16 -13 17 -16 3 -11 -11 4 -21 0 -26 -10 -8 -14 -12 -13 -31 6 -21 21 -21 21
-2 63 11 24 22 51 25 61 7 22 12 21 43 -3z m1923 -80 c0 -5 -7 -10 -16 -10 -8
0 -12 5 -9 10 3 6 10 10 16 10 5 0 9 -4 9 -10z"/>
<path d="M2413 4486 c-13 -6 -23 -14 -23 -18 0 -9 58 11 66 23 7 12 -15 9 -43
-5z"/>
<path d="M2657 4193 c-14 -13 -6 -50 13 -68 25 -22 28 -1 5 31 -19 28 -7 39
18 17 19 -17 20 -17 8 5 -11 22 -31 29 -44 15z"/>
<path d="M2030 2776 c0 -2 7 -7 16 -10 8 -3 12 -2 9 4 -6 10 -25 14 -25 6z"/>
<path d="M2070 2756 c0 -2 7 -7 16 -10 8 -3 12 -2 9 4 -6 10 -25 14 -25 6z"/>
<path d="M4215 2270 c3 -5 11 -10 16 -10 6 0 7 5 4 10 -3 6 -11 10 -16 10 -6
0 -7 -4 -4 -10z"/>
<path d="M4191 2247 c21 -15 59 -37 59 -33 0 11 -33 36 -47 36 -9 0 -14 -1
-12 -3z"/>
<path d="M4215 2195 c30 -25 46 -26 26 -1 -6 7 -22 16 -34 19 -19 5 -18 3 8
-18z"/>
<path d="M4210 2160 c8 -6 24 -16 35 -22 20 -11 20 -11 1 11 -11 11 -26 21
-35 21 -14 0 -14 -2 -1 -10z"/>
<path d="M4220 2120 l25 -20 -25 0 -25 0 25 -20 c14 -11 28 -20 32 -20 14 0 0
54 -17 67 -29 21 -43 15 -15 -7z"/>
<path d="M4190 2065 c0 -2 14 -11 30 -20 17 -9 30 -12 30 -7 0 5 -11 14 -25
20 -28 13 -35 14 -35 7z"/>
<path d="M4215 2011 c17 -10 32 -16 35 -14 8 7 -32 33 -49 33 -9 0 -3 -8 14
-19z"/>
<path d="M4210 1981 c24 -20 40 -26 40 -16 0 2 -15 12 -32 20 l-33 16 25 -20z"/>
<path d="M4205 1940 c16 -10 32 -17 35 -14 7 8 -31 34 -49 34 -10 0 -4 -8 14
-20z"/>
<path d="M4206 1905 c25 -19 40 -19 24 0 -7 8 -20 15 -28 15 -13 0 -12 -3 4
-15z"/>
<path d="M4190 1876 c0 -2 7 -7 16 -10 8 -3 12 -2 9 4 -6 10 -25 14 -25 6z"/>
<path d="M629 3642 c-28 -25 -31 -34 -31 -76 1 -53 17 -78 65 -103 52 -27 131
19 143 84 19 99 -100 163 -177 95z m112 -12 c18 -10 27 -50 11 -50 -5 0 -17
-8 -28 -18 -11 -10 -34 -21 -52 -25 -52 -10 -65 38 -24 86 17 19 63 23 93 7z"/>
<path d="M407 2240 c-5 -19 0 -20 106 -22 l112 -2 -110 -5 c-179 -9 -133 -25
90 -31 l200 -6 -200 -4 c-170 -3 -186 -5 -105 -10 l95 -6 -95 -5 c-52 -3 353
-5 900 -5 547 0 916 3 820 6 -132 4 -156 7 -95 10 54 3 15 6 -120 10 l-200 6
182 2 c108 1 184 6 188 12 4 6 -14 10 -47 10 -34 0 -48 3 -39 9 9 6 -2 11 -35
15 -119 15 -339 26 -447 22 -74 -3 -116 -2 -112 4 4 6 -192 10 -538 10 -536 0
-545 0 -550 -20z m476 -17 c-40 -2 -106 -2 -145 0 -40 1 -8 3 72 3 80 0 112
-2 73 -3z m435 -10 c-21 -2 -55 -2 -75 0 -21 2 -4 4 37 4 41 0 58 -2 38 -4z
m460 0 c-16 -2 -40 -2 -55 0 -16 2 -3 4 27 4 30 0 43 -2 28 -4z m120 0 c-10
-2 -26 -2 -35 0 -10 3 -2 5 17 5 19 0 27 -2 18 -5z m105 0 c-13 -2 -33 -2 -45
0 -13 2 -3 4 22 4 25 0 35 -2 23 -4z m35 -20 c-21 -2 -55 -2 -75 0 -21 2 -4 4
37 4 41 0 58 -2 38 -4z m-1105 -10 c-7 -2 -19 -2 -25 0 -7 3 -2 5 12 5 14 0
19 -2 13 -5z m864 1 c-3 -3 -12 -4 -19 -1 -8 3 -5 6 6 6 11 1 17 -2 13 -5z
m-554 -11 c-35 -2 -91 -2 -125 0 -35 2 -7 3 62 3 69 0 97 -1 63 -3z m370 0
c-46 -2 -120 -2 -165 0 -46 1 -9 3 82 3 91 0 128 -2 83 -3z m-70 -20 c-24 -2
-62 -2 -85 0 -24 2 -5 4 42 4 47 0 66 -2 43 -4z"/>
<path d="M1948 2253 c7 -3 16 -2 19 1 4 3 -2 6 -13 5 -11 0 -14 -3 -6 -6z"/>
<path d="M405 2120 c-4 -7 317 -10 1052 -9 582 0 1046 4 1031 9 -42 12 -2075
13 -2083 0z"/>
<path d="M407 2084 c-4 -4 -7 -11 -7 -16 0 -4 528 -8 1173 -7 912 0 1166 3
1147 12 -19 9 -311 13 -1166 15 -627 1 -1143 -1 -1147 -4z"/>
</g>
</svg>
