<?xml version="1.0" standalone="no"?>
<!DOCTYPE svg PUBLIC "-//W3C//DTD SVG 20010904//EN"
 "http://www.w3.org/TR/2001/REC-SVG-20010904/DTD/svg10.dtd">
<svg version="1.0" xmlns="http://www.w3.org/2000/svg"
 width="500.000000pt" height="500.000000pt" viewBox="0 0 500.000000 500.000000"
 preserveAspectRatio="xMidYMid meet">

<g transform="translate(0.000000,500.000000) scale(0.100000,-0.100000)"
fill="#000000" stroke="none">
<path d="M2240 4260 c-298 -29 -605 -140 -855 -311 -455 -311 -740 -797 -799
-1361 l-6 -58 46 30 c63 39 140 55 205 41 52 -12 103 -34 130 -57 15 -13 17
-3 23 107 12 207 49 371 122 545 215 516 690 878 1264 964 96 14 364 14 460 0
89 -14 241 -51 324 -80 101 -34 73 -15 -56 39 -277 118 -580 167 -858 141z
m-273 -129 c-268 -89 -472 -215 -677 -421 -145 -144 -227 -255 -319 -431 -63
-119 -135 -333 -157 -464 -8 -55 -18 -110 -20 -122 -3 -17 -11 -23 -32 -23
-15 0 -43 -4 -61 -10 -19 -5 -37 -8 -39 -5 -17 17 62 313 124 465 193 468 616
853 1104 1003 126 39 145 44 175 46 11 0 -33 -17 -98 -38z"/>
<path d="M3475 3981 c-143 -41 -266 -117 -408 -251 -252 -239 -337 -466 -256
-685 29 -80 32 -217 5 -293 -34 -98 -186 -261 -424 -454 -96 -78 -101 -85
-102 -131 0 -97 127 -229 224 -231 52 -1 59 4 151 119 177 220 354 382 447
410 80 23 190 19 289 -11 182 -55 346 -21 514 106 l64 48 26 -44 c103 -175
362 -154 443 35 20 48 19 136 -2 186 -29 67 -120 145 -171 145 -19 0 -20 -3
15 71 69 148 84 327 41 469 -76 249 -245 422 -489 500 -80 26 -107 30 -200 29
-70 0 -128 -6 -167 -18z m170 -33 c14 -31 49 -35 69 -7 14 20 18 21 40 10 14
-8 32 -11 40 -8 9 3 28 2 43 -4 23 -8 28 -15 28 -42 0 -25 4 -33 22 -35 14 -2
27 4 34 17 13 19 13 19 53 -1 36 -19 38 -22 22 -33 -26 -20 -17 -60 14 -60 17
0 26 7 30 24 l5 24 35 -29 c19 -15 37 -29 39 -31 3 -2 -1 -9 -7 -15 -16 -16
-15 -48 1 -49 17 -2 20 -1 38 6 12 4 27 -11 58 -58 34 -53 40 -69 35 -95 -6
-28 -4 -32 14 -32 13 0 24 -10 31 -31 9 -25 8 -30 -3 -26 -18 7 -36 -12 -29
-29 6 -17 33 -19 33 -2 0 9 3 9 12 0 16 -16 24 -172 9 -172 -15 0 -14 -27 1
-32 29 -10 -53 -269 -92 -289 -39 -19 -140 -45 -143 -35 -2 5 -9 6 -16 2 -9
-6 -10 -11 -3 -15 7 -4 -8 -27 -36 -58 -28 -30 -48 -62 -48 -75 -1 -126 2
-120 -71 -175 -100 -76 -205 -123 -290 -130 -97 -8 -164 3 -170 28 -4 14 -11
18 -25 13 -23 -7 -61 25 -84 69 -8 15 -20 27 -27 27 -7 0 -39 27 -72 60 -56
56 -58 61 -40 73 11 9 16 20 12 31 -7 19 -38 21 -55 4 -16 -16 -65 29 -58 54
5 23 -22 51 -42 43 -17 -6 -72 41 -72 62 0 7 -11 18 -25 23 -31 12 -31 17 -2
40 18 15 20 22 11 37 -16 27 -54 29 -61 4 -7 -26 -11 -26 -39 0 -18 17 -22 28
-17 52 5 22 1 33 -12 43 -16 12 -16 17 -5 44 11 26 10 33 -4 49 -13 15 -14 26
-7 67 13 69 21 86 38 80 14 -6 53 26 53 43 0 5 -7 17 -15 25 -25 25 -3 57 34
50 47 -10 79 37 47 69 -21 20 2 52 32 45 33 -9 65 19 58 52 -6 30 12 52 51 64
12 4 25 16 28 27 6 19 8 19 25 4 24 -22 62 -16 76 13 10 19 12 21 18 7 4 -11
16 -15 38 -13 30 3 33 6 33 38 0 31 -3 35 -28 38 -18 2 -33 -3 -41 -14 -10
-13 -17 -14 -31 -7 -17 10 -16 12 8 28 14 9 31 14 36 10 6 -3 22 5 37 20 22
23 27 24 40 10 9 -8 22 -15 29 -15 22 0 47 31 42 51 -7 26 6 24 18 -3 20 -46
75 -29 75 23 0 34 17 39 22 8 8 -53 70 -49 76 5 4 32 14 33 27 4z m-537 -1200
l232 -233 -98 -1 c-64 0 -112 -6 -140 -17 -49 -19 -48 -17 15 61 24 29 43 56
43 60 -1 14 -408 -405 -489 -503 -46 -55 -91 -110 -102 -122 -25 -30 -71 -30
-124 1 -77 45 -143 157 -118 199 4 8 62 59 128 114 111 93 546 515 507 494 -9
-6 -39 -28 -67 -50 -27 -22 -50 -39 -51 -38 -1 1 4 27 12 57 9 32 14 87 12
133 -2 42 -1 77 2 77 3 0 110 -105 238 -232z m1182 132 c21 -11 42 -25 45 -31
4 -6 -7 -4 -23 5 -17 9 -52 16 -78 16 -42 0 -45 -2 -33 -16 11 -14 9 -20 -19
-45 -35 -31 -79 -38 -88 -14 -9 23 -30 2 -50 -51 -18 -49 -14 -105 12 -156 10
-18 11 -27 4 -23 -21 13 -50 89 -50 133 0 46 21 105 48 136 26 29 112 66 155
66 21 0 55 -9 77 -20z m-130 -130 c0 -5 -11 -17 -26 -26 -31 -21 -56 -5 -34
21 14 17 60 21 60 5z"/>
<path d="M3767 3904 c-4 -4 -7 -18 -7 -30 0 -17 7 -25 26 -30 31 -8 47 6 42
37 -2 17 -10 25 -28 27 -14 2 -29 0 -33 -4z"/>
<path d="M3673 3893 c-18 -7 -16 -48 2 -63 23 -19 55 -3 55 30 0 33 -23 47
-57 33z"/>
<path d="M3567 3873 c-11 -11 -8 -48 5 -61 32 -32 87 18 58 53 -13 15 -51 20
-63 8z"/>
<path d="M3478 3859 c-44 -25 -3 -93 42 -69 26 14 26 56 1 70 -23 12 -22 12
-43 -1z"/>
<path d="M3370 3836 c-6 -8 -10 -25 -8 -38 2 -19 9 -23 38 -23 29 0 36 4 38
23 4 28 -14 52 -38 52 -10 0 -23 -7 -30 -14z"/>
<path d="M3887 3824 c-15 -16 -7 -53 14 -59 30 -10 58 19 43 43 -12 18 -45 28
-57 16z"/>
<path d="M3792 3808 c-30 -30 0 -78 37 -58 26 14 27 46 2 60 -24 13 -24 13
-39 -2z"/>
<path d="M3694 3792 c-21 -14 -23 -40 -3 -58 23 -20 51 -10 57 20 7 32 -28 56
-54 38z"/>
<path d="M3587 3774 c-13 -13 -7 -51 9 -65 23 -19 49 1 49 37 0 24 -5 30 -25
32 -14 2 -29 0 -33 -4z"/>
<path d="M3490 3756 c-20 -25 -8 -61 21 -64 36 -4 55 21 41 53 -13 28 -43 33
-62 11z"/>
<path d="M3391 3736 c-7 -8 -11 -25 -9 -38 2 -18 9 -23 32 -23 36 0 56 27 40
53 -14 22 -48 27 -63 8z"/>
<path d="M4013 3743 c-19 -7 -16 -50 4 -57 24 -10 51 20 37 41 -12 19 -23 24
-41 16z"/>
<path d="M3284 3716 c-9 -23 -1 -48 19 -60 25 -16 52 4 52 40 0 25 -4 29 -33
32 -22 2 -34 -2 -38 -12z"/>
<path d="M3907 3724 c-13 -13 -7 -52 8 -58 27 -10 46 5 43 33 -3 26 -35 41
-51 25z"/>
<path d="M3196 3707 c-38 -27 2 -95 42 -71 21 14 28 50 12 70 -15 17 -31 18
-54 1z"/>
<path d="M3805 3704 c-18 -19 -16 -33 8 -48 18 -11 47 0 54 21 4 12 -23 43
-37 43 -5 0 -16 -7 -25 -16z"/>
<path d="M3090 3685 c-15 -18 -6 -61 16 -69 18 -7 49 8 57 26 2 7 1 23 -4 36
-10 26 -50 30 -69 7z"/>
<path d="M3704 3686 c-11 -28 1 -51 28 -54 31 -4 48 29 28 53 -16 19 -49 19
-56 1z"/>
<path d="M3601 3662 c-14 -27 8 -55 40 -50 19 2 24 9 24 33 0 25 -4 31 -27 33
-18 2 -30 -3 -37 -16z"/>
<path d="M3506 3654 c-19 -19 -20 -25 -3 -49 20 -26 67 -13 67 18 0 43 -35 60
-64 31z"/>
<path d="M4116 3644 c-4 -10 -2 -22 3 -27 15 -15 46 -3 46 18 0 26 -40 33 -49
9z"/>
<path d="M3407 3643 c-11 -11 -8 -48 5 -61 32 -32 80 8 58 48 -10 19 -49 27
-63 13z"/>
<path d="M4033 3643 c-7 -2 -13 -16 -13 -29 0 -19 5 -24 24 -24 30 0 40 24 20
45 -9 8 -16 15 -17 14 -1 0 -8 -3 -14 -6z"/>
<path d="M3309 3619 c-18 -18 -19 -23 -6 -42 18 -28 40 -32 61 -12 20 21 20
39 0 59 -20 21 -30 20 -55 -5z"/>
<path d="M3916 3615 c-9 -24 4 -45 29 -45 13 0 25 7 29 15 9 24 -4 45 -29 45
-13 0 -25 -7 -29 -15z"/>
<path d="M3206 3599 c-8 -12 -12 -28 -9 -35 15 -40 83 -33 83 9 0 47 -47 64
-74 26z"/>
<path d="M3825 3604 c-18 -18 -16 -33 7 -47 35 -22 66 21 36 51 -16 16 -23 15
-43 -4z"/>
<path d="M3112 3588 c-18 -18 -15 -56 6 -66 9 -6 27 -6 40 -1 38 14 24 79 -18
79 -9 0 -21 -5 -28 -12z"/>
<path d="M3720 3585 c-18 -22 -1 -50 31 -50 20 0 24 5 24 30 0 23 -5 31 -21
33 -11 2 -27 -4 -34 -13z"/>
<path d="M3004 3566 c-12 -31 0 -61 27 -64 31 -4 52 18 47 50 -2 18 -10 24
-36 26 -21 2 -34 -2 -38 -12z"/>
<path d="M3621 3566 c-16 -19 2 -56 28 -56 28 0 47 28 34 48 -13 22 -47 27
-62 8z"/>
<path d="M3526 3555 c-19 -20 -20 -26 -3 -49 26 -36 84 4 61 42 -15 23 -38 26
-58 7z"/>
<path d="M4138 3548 c-8 -21 2 -38 22 -38 19 0 30 17 23 38 -3 6 -13 12 -23
12 -10 0 -20 -6 -22 -12z"/>
<path d="M3420 3531 c-13 -25 -4 -48 21 -56 38 -12 65 35 37 63 -18 18 -46 14
-58 -7z"/>
<path d="M4040 3535 c-17 -20 -5 -45 20 -45 11 0 23 7 26 15 6 15 -11 45 -26
45 -4 0 -13 -7 -20 -15z"/>
<path d="M3326 3524 c-22 -21 -20 -40 6 -58 15 -11 26 -12 40 -5 24 13 23 55
-1 69 -25 13 -27 13 -45 -6z"/>
<path d="M3936 3513 c-8 -21 17 -48 38 -40 9 4 16 18 16 32 0 20 -5 25 -24 25
-13 0 -27 -8 -30 -17z"/>
<path d="M3232 3511 c-8 -5 -12 -21 -10 -37 2 -21 9 -30 26 -32 44 -7 67 32
36 62 -17 18 -32 20 -52 7z"/>
<path d="M3845 3504 c-18 -19 -16 -33 7 -48 12 -7 21 -6 32 3 22 18 20 38 -3
51 -15 7 -24 6 -36 -6z"/>
<path d="M3133 3493 c-7 -2 -13 -18 -13 -34 0 -22 6 -30 25 -35 29 -7 55 10
55 35 0 33 -32 49 -67 34z"/>
<path d="M3740 3486 c-27 -33 18 -72 48 -42 13 13 14 20 6 34 -15 23 -38 26
-54 8z"/>
<path d="M3027 3473 c-4 -3 -7 -19 -7 -34 0 -22 6 -30 26 -35 17 -4 31 -1 41
9 10 10 13 24 9 41 -5 20 -13 26 -35 26 -15 0 -31 -3 -34 -7z"/>
<path d="M3635 3459 c-10 -30 18 -58 43 -43 9 6 17 22 17 35 0 34 -50 41 -60
8z"/>
<path d="M2930 3456 c-16 -20 -9 -56 13 -70 39 -24 79 44 41 71 -23 17 -39 16
-54 -1z"/>
<path d="M3540 3451 c-13 -25 -13 -27 5 -44 31 -31 75 5 55 44 -14 25 -46 25
-60 0z"/>
<path d="M4154 3449 c-10 -17 23 -46 37 -32 7 7 9 19 6 27 -7 18 -33 21 -43 5z"/>
<path d="M3439 3434 c-17 -21 0 -49 31 -49 31 0 48 28 31 49 -8 9 -21 16 -31
16 -10 0 -23 -7 -31 -16z"/>
<path d="M4060 3434 c-11 -12 -10 -18 4 -32 16 -16 18 -16 31 2 11 14 12 23 4
33 -15 17 -24 16 -39 -3z"/>
<path d="M3339 3414 c-17 -21 0 -49 31 -49 27 0 46 25 37 49 -8 21 -51 21 -68
0z"/>
<path d="M3956 3413 c-4 -9 0 -23 9 -32 13 -14 17 -14 31 1 9 9 14 24 11 32
-8 21 -43 20 -51 -1z"/>
<path d="M3246 3404 c-31 -30 -8 -69 36 -62 30 4 38 46 12 65 -23 17 -29 16
-48 -3z"/>
<path d="M3853 3394 c-3 -8 2 -23 11 -32 15 -15 17 -15 32 0 21 21 11 48 -16
48 -11 0 -23 -7 -27 -16z"/>
<path d="M3141 3382 c-12 -22 11 -62 34 -62 8 0 21 10 29 22 20 28 4 58 -29
58 -13 0 -29 -8 -34 -18z"/>
<path d="M3760 3385 c-17 -21 -5 -45 24 -45 28 0 37 17 24 43 -11 21 -31 22
-48 2z"/>
<path d="M3058 3379 c-22 -13 -23 -52 -2 -70 17 -14 40 -5 58 24 8 12 5 21 -8
36 -22 24 -24 24 -48 10z"/>
<path d="M3654 3366 c-11 -28 4 -48 33 -44 22 2 28 8 28 28 0 20 -6 26 -28 28
-18 2 -29 -2 -33 -12z"/>
<path d="M2952 3358 c-36 -36 6 -91 46 -62 26 18 28 37 6 58 -19 19 -36 20
-52 4z"/>
<path d="M3560 3355 c-20 -25 -8 -50 25 -50 21 0 31 5 33 18 4 21 -14 47 -33
47 -7 0 -18 -7 -25 -15z"/>
<path d="M4280 3355 c0 -8 7 -15 15 -15 8 0 15 7 15 15 0 8 -7 15 -15 15 -8 0
-15 -7 -15 -15z"/>
<path d="M4174 3349 c-9 -15 11 -33 30 -26 9 4 13 13 10 22 -7 17 -30 20 -40
4z"/>
<path d="M2851 3336 c-7 -8 -11 -25 -9 -38 2 -18 9 -23 32 -23 36 0 56 27 40
53 -14 22 -48 27 -63 8z"/>
<path d="M3460 3335 c-18 -22 -1 -50 31 -50 20 0 24 5 24 30 0 23 -5 31 -21
33 -11 2 -27 -4 -34 -13z"/>
<path d="M4079 3334 c-9 -11 -9 -18 -1 -26 14 -14 42 -3 42 16 0 20 -27 27
-41 10z"/>
<path d="M3356 3314 c-9 -22 11 -54 34 -54 23 0 43 32 34 54 -4 9 -18 16 -34
16 -16 0 -30 -7 -34 -16z"/>
<path d="M3974 3315 c-8 -19 3 -35 26 -35 22 0 33 23 17 39 -15 15 -37 14 -43
-4z"/>
<path d="M3260 3305 c-23 -28 9 -72 45 -59 36 14 24 74 -15 74 -10 0 -23 -7
-30 -15z"/>
<path d="M3874 3295 c-4 -9 -2 -21 4 -27 16 -16 47 -5 47 17 0 26 -42 34 -51
10z"/>
<path d="M3160 3285 c-14 -17 -5 -51 16 -59 22 -8 54 11 54 32 0 38 -46 56
-70 27z"/>
<path d="M3780 3285 c-18 -21 -5 -47 22 -43 26 3 37 36 16 49 -18 12 -24 11
-38 -6z"/>
<path d="M3060 3265 c-20 -24 0 -50 36 -50 26 0 29 4 29 30 0 25 -4 31 -26 33
-15 2 -31 -4 -39 -13z"/>
<path d="M3675 3270 c-11 -18 6 -50 25 -50 25 0 43 33 28 48 -15 15 -45 16
-53 2z"/>
<path d="M2966 3254 c-19 -19 -20 -25 -3 -48 21 -29 61 -17 65 18 5 43 -32 61
-62 30z"/>
<path d="M3580 3255 c-26 -31 18 -71 47 -43 12 12 13 20 4 37 -14 25 -34 27
-51 6z"/>
<path d="M4194 3249 c-10 -17 13 -36 27 -22 12 12 4 33 -11 33 -5 0 -12 -5
-16 -11z"/>
<path d="M2873 3243 c-21 -8 -16 -61 6 -68 39 -12 69 23 49 59 -9 16 -31 19
-55 9z"/>
<path d="M3480 3236 c-27 -33 18 -72 48 -42 13 13 14 20 6 34 -15 23 -38 26
-54 8z"/>
<path d="M3387 3229 c-39 -22 -4 -79 35 -58 10 5 18 18 18 29 0 25 -30 41 -53
29z"/>
<path d="M4095 3230 c-4 -7 -3 -16 3 -22 14 -14 45 -2 40 15 -6 16 -34 21 -43
7z"/>
<path d="M3994 3215 c-4 -9 -2 -21 4 -27 15 -15 44 -1 40 19 -4 23 -36 29 -44
8z"/>
<path d="M3280 3205 c-6 -8 -9 -23 -5 -35 10 -31 59 -24 63 9 6 37 -34 55 -58
26z"/>
<path d="M3893 3194 c-3 -8 -1 -20 5 -26 16 -16 42 -2 42 22 0 24 -38 28 -47
4z"/>
<path d="M3179 3184 c-17 -21 0 -49 31 -49 31 0 48 28 31 49 -8 9 -21 16 -31
16 -10 0 -23 -7 -31 -16z"/>
<path d="M3800 3185 c-15 -18 -6 -45 13 -45 8 0 20 7 27 15 10 12 10 18 0 30
-16 19 -24 19 -40 0z"/>
<path d="M3085 3173 c-18 -18 -19 -35 -3 -51 28 -28 75 -1 63 36 -8 26 -41 34
-60 15z"/>
<path d="M3697 3173 c-13 -12 -7 -41 10 -47 21 -8 48 17 40 38 -6 16 -38 22
-50 9z"/>
<path d="M2986 3154 c-19 -18 -19 -20 -6 -45 12 -21 40 -25 58 -7 18 18 14 46
-7 58 -25 13 -27 13 -45 -6z"/>
<path d="M3602 3158 c-7 -7 -12 -18 -12 -25 0 -15 30 -32 48 -26 17 7 15 50
-4 57 -20 8 -18 8 -32 -6z"/>
<path d="M4220 3146 c0 -9 7 -16 16 -16 17 0 14 22 -4 28 -7 2 -12 -3 -12 -12z"/>
<path d="M2887 3144 c-12 -12 -8 -51 7 -63 24 -20 58 4 54 37 -2 20 -9 28 -28
30 -14 2 -29 0 -33 -4z"/>
<path d="M3494 3135 c-10 -25 4 -45 30 -45 28 0 37 17 24 43 -11 21 -46 23
-54 2z"/>
<path d="M3405 3126 c-22 -16 -15 -50 11 -54 25 -4 47 19 38 41 -8 22 -29 28
-49 13z"/>
<path d="M4110 3125 c0 -8 9 -15 20 -15 11 0 20 7 20 15 0 8 -9 15 -20 15 -11
0 -20 -7 -20 -15z"/>
<path d="M4013 3114 c-7 -18 17 -38 31 -24 11 11 1 40 -14 40 -6 0 -13 -7 -17
-16z"/>
<path d="M3301 3106 c-17 -20 -4 -56 18 -56 28 0 47 28 34 48 -14 23 -37 26
-52 8z"/>
<path d="M3913 3094 c-8 -22 18 -37 36 -20 7 8 10 19 7 25 -10 16 -36 13 -43
-5z"/>
<path d="M3200 3085 c-18 -22 -1 -50 31 -50 20 0 24 5 24 30 0 23 -5 31 -21
33 -11 2 -27 -4 -34 -13z"/>
<path d="M3814 3085 c-4 -9 -2 -21 4 -27 15 -15 44 -1 40 19 -4 23 -36 29 -44
8z"/>
<path d="M3107 3079 c-23 -14 -21 -46 4 -59 15 -9 24 -8 35 1 33 27 -1 79 -39
58z"/>
<path d="M3713 3064 c-3 -8 1 -22 9 -30 13 -14 17 -14 31 1 9 8 14 22 11 30
-8 20 -43 19 -51 -1z"/>
<path d="M3006 3054 c-20 -19 -20 -29 -1 -48 21 -20 64 -3 65 26 0 9 -30 38
-40 38 -5 0 -16 -7 -24 -16z"/>
<path d="M3620 3055 c-7 -8 -10 -22 -6 -30 7 -20 42 -19 50 1 8 22 8 22 -13
33 -14 8 -22 7 -31 -4z"/>
<path d="M3514 3035 c-9 -23 3 -45 26 -45 25 0 37 25 20 45 -16 19 -39 19 -46
0z"/>
<path d="M4240 3039 c0 -5 5 -7 10 -4 6 3 10 8 10 11 0 2 -4 4 -10 4 -5 0 -10
-5 -10 -11z"/>
<path d="M4137 3034 c-8 -8 1 -24 14 -24 5 0 9 7 9 15 0 15 -12 20 -23 9z"/>
<path d="M3415 3020 c-12 -20 6 -51 28 -48 31 4 31 52 0 56 -11 2 -24 -2 -28
-8z"/>
<path d="M3319 3004 c-15 -18 -2 -47 24 -52 25 -5 40 33 21 52 -19 20 -28 20
-45 0z"/>
<path d="M4033 3008 c2 -7 10 -13 17 -13 7 0 15 6 18 13 2 7 -5 12 -18 12 -13
0 -20 -5 -17 -12z"/>
<path d="M3934 2999 c-10 -17 13 -36 27 -22 12 12 4 33 -11 33 -5 0 -12 -5
-16 -11z"/>
<path d="M3214 2978 c-12 -40 45 -60 60 -21 4 9 1 22 -5 29 -17 21 -47 17 -55
-8z"/>
<path d="M3834 2986 c-7 -19 3 -36 22 -36 10 0 14 8 12 22 -4 26 -26 36 -34
14z"/>
<path d="M3114 2965 c-10 -25 4 -45 30 -45 30 0 40 13 31 40 -8 24 -53 28 -61
5z"/>
<path d="M3734 2965 c-4 -9 -2 -21 4 -27 15 -15 44 -1 40 19 -4 23 -36 29 -44
8z"/>
<path d="M3025 2954 c-18 -18 -16 -33 7 -47 35 -22 66 21 36 51 -16 16 -23 15
-43 -4z"/>
<path d="M3643 2963 c-18 -7 -16 -40 3 -47 21 -8 34 1 34 24 0 19 -17 30 -37
23z"/>
<path d="M3537 2944 c-13 -13 -7 -42 10 -48 21 -8 36 6 31 30 -3 19 -29 30
-41 18z"/>
<path d="M3437 2923 c-13 -12 -7 -41 10 -47 9 -4 23 -1 30 7 8 7 11 21 7 30
-6 17 -35 23 -47 10z"/>
<path d="M3340 2905 c-17 -20 -5 -45 20 -45 11 0 23 7 26 15 6 15 -11 45 -26
45 -4 0 -13 -7 -20 -15z"/>
<path d="M3955 2899 c-10 -15 1 -23 20 -15 9 3 13 10 10 16 -8 13 -22 13 -30
-1z"/>
<path d="M3234 2886 c-10 -26 4 -48 28 -44 17 2 23 10 23 28 0 18 -6 26 -23
28 -13 2 -25 -3 -28 -12z"/>
<path d="M3850 2876 c0 -15 24 -28 34 -19 13 14 5 33 -14 33 -11 0 -20 -6 -20
-14z"/>
<path d="M3135 2870 c-12 -20 6 -51 28 -48 31 4 31 52 0 56 -11 2 -24 -2 -28
-8z"/>
<path d="M3757 2874 c-14 -15 -6 -34 14 -34 14 0 19 5 17 17 -3 18 -20 27 -31
17z"/>
<path d="M3661 2861 c-17 -11 -7 -41 13 -41 22 0 30 20 15 36 -9 8 -19 10 -28
5z"/>
<path d="M3554 2835 c-4 -9 -2 -21 4 -27 15 -15 44 -1 40 19 -4 23 -36 29 -44
8z"/>
<path d="M3454 2815 c-4 -9 -2 -21 4 -27 15 -15 44 -1 40 19 -4 23 -36 29 -44
8z"/>
<path d="M3353 2794 c-3 -8 -1 -20 5 -26 16 -16 42 -2 42 22 0 24 -38 28 -47
4z"/>
<path d="M3263 2793 c-18 -7 -16 -28 3 -43 12 -11 18 -10 31 3 13 13 14 19 3
31 -13 17 -17 18 -37 9z"/>
<path d="M3877 2784 c-8 -8 1 -24 14 -24 5 0 9 7 9 15 0 15 -12 20 -23 9z"/>
<path d="M3774 2769 c-10 -17 13 -36 27 -22 12 12 4 33 -11 33 -5 0 -12 -5
-16 -11z"/>
<path d="M3674 2749 c-10 -17 13 -36 27 -22 12 12 4 33 -11 33 -5 0 -12 -5
-16 -11z"/>
<path d="M3572 2723 c5 -26 38 -29 38 -4 0 15 -6 21 -21 21 -14 0 -19 -5 -17
-17z"/>
<path d="M3473 2714 c-8 -22 18 -37 36 -20 7 8 10 19 7 25 -10 16 -36 13 -43
-5z"/>
<path d="M3374 2695 c-8 -19 12 -36 33 -28 19 7 12 37 -10 41 -9 2 -20 -4 -23
-13z"/>
<path d="M3280 2685 c-15 -18 -5 -35 21 -35 12 0 19 7 19 19 0 24 -25 34 -40
16z"/>
<path d="M3895 2680 c-3 -5 -1 -10 4 -10 6 0 11 5 11 10 0 6 -2 10 -4 10 -3 0
-8 -4 -11 -10z"/>
<path d="M3790 2660 c0 -5 7 -10 15 -10 8 0 15 5 15 10 0 6 -7 10 -15 10 -8 0
-15 -4 -15 -10z"/>
<path d="M3697 2654 c-8 -8 1 -24 14 -24 5 0 9 7 9 15 0 15 -12 20 -23 9z"/>
<path d="M3590 2625 c0 -10 7 -15 18 -13 21 4 19 22 -2 26 -10 2 -16 -3 -16
-13z"/>
<path d="M3497 2624 c-14 -15 -6 -34 14 -34 14 0 19 5 17 17 -3 18 -20 27 -31
17z"/>
<path d="M3395 2600 c-8 -14 3 -30 21 -30 8 0 14 9 14 20 0 21 -24 28 -35 10z"/>
<path d="M3616 2531 c-4 -5 -2 -12 3 -15 5 -4 12 -2 15 3 4 5 2 12 -3 15 -5 4
-12 2 -15 -3z"/>
<path d="M3512 2508 c6 -18 28 -21 28 -4 0 9 -7 16 -16 16 -9 0 -14 -5 -12
-12z"/>
<path d="M2961 2744 c-43 -55 -16 -145 48 -159 33 -7 88 13 111 40 14 17 14
17 -17 2 -96 -50 -175 21 -128 113 19 37 13 38 -14 4z"/>
<path d="M2730 2516 c-91 -88 -214 -201 -273 -250 -121 -99 -123 -105 -70
-175 l26 -33 265 265 c255 255 265 267 249 285 -9 10 -17 25 -17 33 -1 45 -23
29 -180 -125z"/>
<path d="M2375 3763 c-61 -7 -75 -14 -90 -43 -14 -27 -14 -50 -5 -183 12 -160
21 -202 51 -217 22 -12 126 -13 133 -2 3 5 31 7 62 4 l57 -5 -7 89 c-4 49 -9
107 -12 130 l-6 41 -56 -4 c-32 -3 -63 -6 -69 -8 -19 -6 -16 -39 7 -68 28 -35
27 -93 -2 -100 -12 -3 -25 -4 -29 -2 -4 3 -10 58 -13 122 -4 65 -9 128 -12
141 -4 19 0 22 25 22 22 0 30 -5 35 -25 6 -22 11 -25 56 -25 27 0 51 4 55 9
10 18 -14 96 -36 114 -21 16 -67 20 -144 10z"/>
<path d="M2007 3674 l-47 -24 41 -81 c22 -45 39 -83 37 -84 -2 -2 -40 23 -86
56 l-82 59 -45 -22 -44 -23 105 -203 105 -202 50 26 49 27 -44 84 c-24 46 -38
82 -30 79 7 -3 47 -30 88 -61 l74 -56 45 22 46 22 -101 196 c-56 108 -104 199
-107 203 -3 3 -27 -5 -54 -18z"/>
<path d="M1594 3389 l-39 -41 164 -160 164 -160 39 43 c21 23 35 45 31 49 -4
3 -78 74 -164 158 l-155 152 -40 -41z"/>
<path d="M1455 3172 c-11 -2 -28 -11 -39 -21 -26 -23 -109 -192 -99 -202 12
-12 378 -199 389 -199 8 0 54 80 54 93 0 2 -27 16 -60 32 -33 16 -60 33 -60
37 0 5 9 26 20 48 41 80 25 117 -71 166 -89 45 -109 51 -134 46z m70 -139 c51
-25 55 -30 50 -53 -4 -14 -8 -26 -10 -28 -1 -2 -32 11 -68 29 -61 30 -64 34
-54 56 13 29 15 29 82 -4z"/>
<path d="M2413 3034 c-21 -22 -84 -93 -140 -160 -169 -200 -298 -312 -391
-340 -67 -21 -189 -18 -264 6 -114 36 -179 42 -263 25 -104 -22 -183 -59 -289
-136 -4 -4 -5 -16 -1 -28 6 -20 9 -19 66 20 69 47 148 83 199 93 23 4 14 -2
-26 -17 -67 -26 -127 -59 -187 -104 -37 -27 -39 -31 -41 -94 -7 -143 -99 -248
-246 -280 -58 -12 -65 -22 -101 -139 -96 -316 102 -673 438 -791 85 -30 221
-36 317 -15 248 56 552 319 648 561 15 38 27 61 27 50 1 -67 -93 -218 -213
-343 -144 -150 -298 -250 -441 -287 -76 -19 -233 -19 -310 0 -305 77 -534 386
-511 687 6 76 35 187 62 240 12 23 11 27 -2 32 -24 9 -24 9 -48 -46 -57 -130
-68 -305 -27 -438 74 -241 238 -414 471 -496 102 -36 259 -44 363 -19 151 36
279 113 430 255 252 239 337 466 256 685 -16 45 -22 83 -23 150 -1 199 38 250
487 637 52 45 57 53 57 89 0 95 -114 219 -217 235 -40 6 -45 4 -80 -32z m153
-36 c79 -54 134 -153 106 -194 -4 -6 -61 -56 -127 -111 -66 -54 -212 -191
-325 -302 -196 -194 -225 -230 -115 -142 27 22 50 39 51 38 1 -1 -4 -27 -12
-57 -9 -32 -14 -87 -12 -133 2 -42 1 -77 -2 -77 -3 0 -110 105 -238 233 l-232
232 98 1 c64 0 112 6 140 17 49 19 48 16 -16 -61 -25 -29 -43 -55 -40 -57 9
-9 412 408 503 520 49 61 94 113 100 117 23 17 75 7 121 -24z m-620 -893 c90
-93 161 -171 159 -173 -12 -12 -512 485 -524 521 -8 21 198 -174 365 -348z
m221 -387 c-3 -8 -6 -5 -6 6 -1 11 2 17 5 13 3 -3 4 -12 1 -19z"/>
<path d="M2322 2678 c-244 -245 -261 -265 -249 -283 8 -11 17 -33 21 -49 7
-28 9 -26 174 135 92 91 203 193 246 229 142 117 138 113 131 141 -4 15 -19
41 -33 58 l-27 32 -263 -263z"/>
<path d="M1925 2407 c-17 -8 -37 -22 -45 -32 -14 -17 -14 -17 17 -2 49 26 98
22 122 -9 25 -32 27 -64 5 -107 l-15 -32 25 28 c35 38 36 104 3 135 -30 28
-74 35 -112 19z"/>
<path d="M702 2541 c-169 -59 -221 -272 -99 -399 147 -153 402 -68 424 141 19
181 -155 319 -325 258z m163 -40 c43 -19 100 -78 116 -118 13 -36 11 -119 -5
-156 -32 -73 -114 -126 -197 -127 -93 0 -189 82 -203 173 -25 166 140 296 289
228z"/>
<path d="M910 2381 c0 -46 -21 -105 -48 -134 -27 -30 -92 -59 -147 -66 l-50
-7 35 -19 c105 -56 241 14 257 133 6 44 -10 104 -33 122 -12 11 -14 6 -14 -29z"/>
<path d="M4016 2349 c-12 -207 -49 -371 -122 -545 -176 -424 -532 -749 -978
-896 -172 -56 -315 -78 -510 -78 -211 0 -401 31 -565 91 -29 11 -56 18 -58 16
-7 -8 218 -99 315 -128 822 -248 1721 144 2116 921 110 216 171 425 201 687
l6 53 -47 -30 c-63 -39 -139 -55 -205 -41 -52 12 -103 34 -130 57 -15 13 -17
3 -23 -107z m152 -15 l43 -7 -6 -51 c-22 -173 -86 -380 -166 -540 -205 -410
-554 -714 -995 -866 -65 -22 -122 -39 -127 -37 -6 2 30 18 80 35 149 54 345
163 468 261 65 52 193 181 255 256 199 243 326 560 356 888 6 73 8 78 28 73
12 -3 40 -8 64 -12z"/>
<path d="M3325 2291 c-31 -13 -50 -40 -79 -114 -28 -72 -27 -104 3 -131 21
-19 304 -136 328 -136 10 0 29 7 42 16 26 19 64 101 56 122 -3 7 4 21 15 30
12 10 22 30 23 46 2 29 -2 31 -103 73 -58 23 -109 43 -113 43 -7 0 -36 -60
-51 -106 -8 -26 28 -45 62 -33 15 6 34 3 57 -8 37 -18 40 -24 25 -53 -9 -17
-18 -14 -135 34 -69 29 -128 55 -131 59 -3 3 -1 15 5 26 9 16 18 19 39 15 26
-5 30 -2 47 42 17 46 17 48 0 61 -11 7 -24 13 -31 13 -7 0 -18 2 -26 4 -7 3
-22 1 -33 -3z"/>
<path d="M3145 1990 l-39 -40 69 -70 70 -70 -105 35 c-57 19 -105 35 -106 35
-2 0 -19 -15 -38 -32 l-34 -33 159 -165 159 -165 40 40 40 40 -65 65 c-35 36
-65 68 -65 72 0 3 45 -10 101 -29 l101 -36 36 37 37 36 -160 160 -161 160 -39
-40z"/>
<path d="M2795 1743 c-119 -49 -122 -62 -49 -245 65 -166 76 -185 111 -199 29
-11 65 -2 150 38 83 40 86 59 28 206 -62 157 -90 213 -110 221 -30 11 -69 5
-130 -21z m119 -202 c47 -119 49 -124 31 -138 -11 -7 -23 -12 -28 -10 -6 2
-32 60 -60 131 -43 106 -49 129 -36 137 30 19 44 1 93 -120z"/>
<path d="M2350 1460 l0 -230 55 0 55 0 0 70 0 70 51 0 c52 0 85 12 106 39 15
20 18 214 3 241 -15 28 -65 40 -171 40 l-99 0 0 -230z m170 70 l0 -70 -30 0
-30 0 0 70 0 70 30 0 30 0 0 -70z"/>
</g>
</svg>
