<svg width="19" height="19" viewBox="0 0 19 19" fill="none" xmlns="http://www.w3.org/2000/svg">
<path d="M9.49999 13C11.433 13 13 11.433 13 9.50001C13 7.56701 11.433 6 9.49999 6C7.56701 6 6 7.56701 6 9.50001C6 11.433 7.56701 13 9.49999 13Z" stroke="#242F5C" stroke-width="2" stroke-linecap="round" stroke-linejoin="round"/>
<path d="M9.49999 13C11.433 13 13 11.433 13 9.50001C13 7.56701 11.433 6 9.49999 6C7.56701 6 6 7.56701 6 9.50001C6 11.433 7.56701 13 9.49999 13Z" stroke="#242F5C" stroke-width="2" stroke-linecap="round" stroke-linejoin="round"/>
<path d="M17.4603 8.4333C18.1799 8.96234 18.1799 10.0377 17.4603 10.5667C16.2696 11.442 15.6638 12.9101 15.8871 14.371C16.0223 15.2568 15.2568 16.0223 14.371 15.8871C12.9101 15.6638 11.442 16.2696 10.5667 17.4603C10.0377 18.1799 8.96234 18.1799 8.4333 17.4603C7.55809 16.2696 6.0899 15.6638 4.62908 15.8871C3.74324 16.0223 2.97766 15.2568 3.11301 14.371C3.33619 12.9101 2.73051 11.442 1.5398 10.5667C0.820067 10.0377 0.820067 8.96234 1.5398 8.4333C2.73051 7.55809 3.33619 6.0899 3.11301 4.62908C2.97766 3.74324 3.74324 2.97766 4.62908 3.11301C6.0899 3.33619 7.55809 2.73051 8.4333 1.5398C8.96234 0.820067 10.0377 0.820067 10.5667 1.5398C11.442 2.73051 12.9101 3.33619 14.371 3.11301C15.2568 2.97766 16.0223 3.74324 15.8871 4.62908C15.6638 6.0899 16.2696 7.55809 17.4603 8.4333Z" stroke="#242F5C" stroke-width="2" stroke-linecap="round" stroke-linejoin="round"/>
<path d="M17.4603 8.4333C18.1799 8.96234 18.1799 10.0377 17.4603 10.5667C16.2696 11.442 15.6638 12.9101 15.8871 14.371C16.0223 15.2568 15.2568 16.0223 14.371 15.8871C12.9101 15.6638 11.442 16.2696 10.5667 17.4603C10.0377 18.1799 8.96234 18.1799 8.4333 17.4603C7.55809 16.2696 6.0899 15.6638 4.62908 15.8871C3.74324 16.0223 2.97766 15.2568 3.11301 14.371C3.33619 12.9101 2.73051 11.442 1.5398 10.5667C0.820067 10.0377 0.820067 8.96234 1.5398 8.4333C2.73051 7.55809 3.33619 6.0899 3.11301 4.62908C2.97766 3.74324 3.74324 2.97766 4.62908 3.11301C6.0899 3.33619 7.55809 2.73051 8.4333 1.5398C8.96234 0.820067 10.0377 0.820067 10.5667 1.5398C11.442 2.73051 12.9101 3.33619 14.371 3.11301C15.2568 2.97766 16.0223 3.74324 15.8871 4.62908C15.6638 6.0899 16.2696 7.55809 17.4603 8.4333Z" stroke="#242F5C" stroke-width="2" stroke-linecap="round" stroke-linejoin="round"/>
</svg>
